<svg width="156" height="18" viewBox="0 0 156 18" fill="none" xmlns="http://www.w3.org/2000/svg">
<path d="M13.65 0H0V4.62857H4.63125V18H9.01875V4.62857H13.65V0Z" fill="#00C28B"/>
<path d="M88.2375 0H83.85V18H94.575V13.3714H88.2375V0Z" fill="#00C28B"/>
<path d="M50.4563 0H54.874L59.3531 10.0286L63.8322 0H68.25L60.45 18H58.2563L50.4563 0Z" fill="#00C28B"/>
<path d="M80.6813 0V3.85714H74.5875V6.94286H79.95V10.8H74.5875V14.1429H80.6813V18H70.2V0H80.6813Z" fill="#00C28B"/>
<path fill-rule="evenodd" clip-rule="evenodd" d="M40.8281 0H42.9L50.8219 18H46.6811L45.4921 15.4286H38.3579L37.1689 18H32.9062L40.8281 0ZM43.8274 11.8286L41.925 7.71429L40.0226 11.8286H43.8274Z" fill="#00C28B"/>
<path fill-rule="evenodd" clip-rule="evenodd" d="M116.513 0H114.441L106.519 18H110.781L111.97 15.4286H119.105L120.294 18H124.434L116.513 0ZM115.538 7.71429L117.44 11.8286H113.635L115.538 7.71429Z" fill="#181818"/>
<path fill-rule="evenodd" clip-rule="evenodd" d="M23.4 0.00123596V0H16.575V18H20.9625V13.1143H23.1562V13.1031C23.2772 13.1105 23.3991 13.1143 23.5219 13.1143L23.5462 13.1142L26.325 18H31.4438L27.7918 11.3222C28.99 10.1269 29.7375 8.4341 29.7375 6.55714C29.7375 2.93573 26.9547 0 23.5219 0C23.4812 0 23.4405 0.000413949 23.4 0.00123596ZM23.6437 9H20.9625V4.11429H23.6437V4.11761C23.6841 4.1154 23.7247 4.11429 23.7656 4.11429C25.0445 4.11429 26.0812 5.20799 26.0812 6.55714C26.0812 7.9063 25.0445 9 23.7656 9C23.7247 9 23.6841 8.99888 23.6437 8.99668V9Z" fill="#00C28B"/>
<path fill-rule="evenodd" clip-rule="evenodd" d="M133.575 0H126.75V18H131.137V13.1143H133.331V13.1031C133.452 13.1105 133.574 13.1143 133.697 13.1143C137.13 13.1143 139.913 10.1786 139.913 6.55714C139.913 2.93573 137.13 0 133.697 0C133.656 0 133.616 0.000413012 133.575 0.00123528V0ZM131.137 9H133.819V8.99668C133.859 8.99888 133.9 9 133.941 9C135.22 9 136.256 7.9063 136.256 6.55714C136.256 5.20799 135.22 4.11429 133.941 4.11429C133.9 4.11429 133.859 4.1154 133.819 4.11761V4.11429H131.137V9Z" fill="#181818"/>
<path fill-rule="evenodd" clip-rule="evenodd" d="M149.663 0V0.00123528C149.703 0.000413012 149.744 0 149.784 0C153.217 0 156 2.93573 156 6.55714C156 10.1786 153.217 13.1143 149.784 13.1143C149.662 13.1143 149.54 13.1105 149.419 13.1031V13.1143H147.225V18H142.838V0H149.663ZM149.906 9H147.225V4.11429H149.906V4.11761C149.947 4.1154 149.987 4.11429 150.028 4.11429C151.307 4.11429 152.344 5.20799 152.344 6.55714C152.344 7.9063 151.307 9 150.028 9C149.987 9 149.947 8.99888 149.906 8.99668V9Z" fill="#181818"/>
</svg>
